<?xml version="1.0" encoding="utf-8"?>
<!-- Generator: Adobe Illustrator 24.0.1, SVG Export Plug-In . SVG Version: 6.00 Build 0)  -->
<svg version="1.1" xmlns="http://www.w3.org/2000/svg" xmlns:xlink="http://www.w3.org/1999/xlink" x="0px" y="0px" viewBox="0 0 1250 1250" style="enable-background:new 0 0 1250 1250;" xml:space="preserve">
<g>
	<g>
		<g>
			<path style="fill:none;stroke:#FFFFFF;stroke-width:83.3333;" d="M1143.9,439.2l1,395.7c0,14.5-1.5,89.8-66,151.3c-40.6,38.7-97.2,62.9-158.9,62.9l-147.3-2.6c-26,0-44.3,22.9-51.6,33.8c-2.5,3.8-5.1,7.4-8.1,10.7c-23.6,27.4-57.6,90.6-87.1,91.6c-25.6,0.8-65.9-57-84-85c-11.5-17.8-28.2-32.1-48.4-40.5c-16.3-6.8-34.2-10.2-52.3-9.9l-89.2,1.5c-14.4,0.2-28.8-0.8-43-3.1c-43.5-7-93.7-19.1-136.1-59.5c-40.6-38.7-66-92.6-66-151.3V304.4c0-117.5,100.8-214.2,224.9-214.2l576.2-2.7l0,0c67.8-0.3,132.7,27.2,177.2,75.9c23.7,25.9,44.7,58.4,54.3,97.9c3.6,14.5,5.5,30,5.5,46.5"/>
			<path style="fill:#FFFFFF;" d="M1187.5,450.2"/>
			<path style="fill:#FFFFFF;" d="M1100.3,439.8c0-22.9,19-41.5,42.4-41.5h2.2c23.4,0,42.4,18.6,42.4,41.5"/>
			<path style="fill:#FFFFFF;" d="M1188.5,307.8c-1.5,4.2-4.6,11.1-11.2,17.4c-12.2,11.5-27.2,11.9-31,11.8h-2.3c-2.8-0.1-19.3-0.9-31-11.8c-6.3-5.9-10.2-13.7-11.4-17.4c0-0.1-0.1-0.3-0.1-0.3"/>
		</g>
	</g>
</g>
<g>
	<g>
		<path style="fill:#FFFFFF;" d="M614.5,903.3L614.5,903.3c-45.1,0-81.7-36.5-81.7-81.7V576.2c0-45.1,36.5-81.7,81.7-81.7l0,0c45.1,0,81.7,36.5,81.7,81.7v245.4C696.1,866.6,659.5,903.3,614.5,903.3z"/>
		<path style="fill:#FFFFFF;" d="M614.5,418.7L614.5,418.7c-45.1,0-81.7-36.5-81.7-81.7l0,0c0-45.1,36.5-81.7,81.7-81.7l0,0c45.1,0,81.7,36.5,81.7,81.7l0,0C696.1,382.1,659.5,418.7,614.5,418.7z"/>
	</g>
</g>
</svg>
